<svg xmlns="http://www.w3.org/2000/svg" viewBox="0 0 960 149.57">
  <defs><style>.r{fill:#c32331;}.w{fill:#2D2B6F;}</style></defs>

  <!-- ── BNI 브랜드 마크 (빨간 부분, 원본 그대로) ── -->
  <path class="r" d="M462.79,318.37H415.71V232.78c11.31-11,42.35-41.29,47.08-44.88Z" transform="translate(-89.35 -168.79)"/>
  <polygon class="r" points="373.04 1.32 326.36 46.39 326.36 1.32 373.04 1.32"/>
  <path class="r" d="M89.35,170.8h81.81q14,0,23.53,3.39t14.75,8.95A32.07,32.07,0,0,1,216.76,195a39.66,39.66,0,0,1,2.1,12.65q0,10.5-4.71,17.18t-13.7,11.62a40.37,40.37,0,0,1,18.72,12.76q7.22,8.85,7.22,23.86a41.59,41.59,0,0,1-4.29,19.13,40.56,40.56,0,0,1-11.72,14.09,53,53,0,0,1-16.84,8.54,66.1,66.1,0,0,1-19.46,2.88H89.35Zm46,57.19h24.27q7.74,0,11.71-2.68t4-9.46q0-5.34-4.08-7.71t-11.61-2.37H135.38Zm0,54.72h27q8.16,0,13.07-3.09t4.92-10.9q0-13.37-16.11-13.37H135.38Z" transform="translate(-89.35 -168.79)"/>
  <path class="r" d="M244.54,170.8h53l49,78.58H347V170.8h49V317.68H345.54L294,237.45h-.47v80.23h-49Z" transform="translate(-89.35 -168.79)"/>

  <!-- ── KOREA (흰색 텍스트, HERO와 동일한 높이/비율) ── -->
  <text x="408" y="133"
        font-family="'Arial Black','Arial',sans-serif"
        font-weight="900"
        font-size="118"
        letter-spacing="-2"
        class="w">KOREA</text>
</svg>
