<svg id="레이어_1" data-name="레이어 1" xmlns="http://www.w3.org/2000/svg" viewBox="0 0 983.29 149.57"><defs><style>.cls-1{fill:#c32331;}.cls-2{fill:#ffffff;}</style></defs><path class="cls-1" d="M462.79,318.37H415.71V232.78c11.31-11,42.35-41.29,47.08-44.88Z" transform="translate(-89.35 -168.79)"/><polygon class="cls-1" points="373.04 1.32 326.36 46.39 326.36 1.32 373.04 1.32"/><path class="cls-1" d="M89.35,170.8h81.81q14,0,23.53,3.39t14.75,8.95A32.07,32.07,0,0,1,216.76,195a39.66,39.66,0,0,1,2.1,12.65q0,10.5-4.71,17.18t-13.7,11.62a40.37,40.37,0,0,1,18.72,12.76q7.22,8.85,7.22,23.86a41.59,41.59,0,0,1-4.29,19.13,40.56,40.56,0,0,1-11.72,14.09,53,53,0,0,1-16.84,8.54,66.1,66.1,0,0,1-19.46,2.88H89.35Zm46,57.19h24.27q7.74,0,11.71-2.68t4-9.46q0-5.34-4.08-7.71t-11.61-2.37H135.38Zm0,54.72h27q8.16,0,13.07-3.09t4.92-10.9q0-13.37-16.11-13.37H135.38Z" transform="translate(-89.35 -168.79)"/><path class="cls-1" d="M244.54,170.8h53l49,78.58H347V170.8h49V317.68H345.54L294,237.45h-.47v80.23h-49Z" transform="translate(-89.35 -168.79)"/><polygon class="cls-2" points="500.89 50.1 458.53 50.1 458.53 2.04 413.29 2.04 413.29 148.86 458.53 148.86 458.53 95.58 500.89 95.58 500.89 148.86 546.13 148.86 546.13 2.04 500.89 2.04 500.89 50.1"/><path class="cls-2" d="M945.37,235.64l94.73-56.58a69.27,69.27,0,0,0-9.66-4.87,79.77,79.77,0,0,0-57.7,0,65.19,65.19,0,0,0-22.57,15.21,67.86,67.86,0,0,0-14.53,23.36,87.52,87.52,0,0,0,0,58.88A67.77,67.77,0,0,0,950.17,295a63.1,63.1,0,0,0,8.17,7.16l30.29-41.7Z" transform="translate(-89.35 -168.79)"/><path class="cls-2" d="M1067.54,212.76A67.84,67.84,0,0,0,1053,189.4a63.73,63.73,0,0,0-6.28-5.69L1014.55,228l43.26,24.82-91.23,54.49q3,1.57,6.16,2.88a79.77,79.77,0,0,0,57.7,0A65.23,65.23,0,0,0,1053,295a67.75,67.75,0,0,0,14.52-23.36,87.52,87.52,0,0,0,0-58.88Z" transform="translate(-89.35 -168.79)"/><path class="cls-2" d="M914,289.08c-.13-2.19-.27-3.83-.41-4.93q-1.23-14-6.78-23.55T892,247.55a29.83,29.83,0,0,0,16.35-14.29A46.33,46.33,0,0,0,914,210.74q0-20-13.77-31t-34.14-11h-78v35h58.28q12.35,0,17.38,3.6t5,11a14.48,14.48,0,0,1-1.85,7.71,11.7,11.7,0,0,1-4.73,4.42,20.88,20.88,0,0,1-6.17,2,46,46,0,0,1-7.2.52H788.06v84.7H833.3V264.41h15.92q6.38,0,10.28,2.36a15.9,15.9,0,0,1,6,6.27,27.26,27.26,0,0,1,2.77,8.33q.72,4.42,1.34,11.42v.2c.35,4,.78,13.12,1.28,22.62h44C914.55,304.8,914.15,292.62,914,289.08Z" transform="translate(-89.35 -168.79)"/><polygon class="cls-2" points="600.38 109.19 600.38 90.89 674.98 90.89 674.98 55.93 600.38 55.93 600.38 34.96 677.09 34.96 677.09 0 561.79 0 561.79 146.82 674.98 146.82 674.98 109.19 600.38 109.19"/></svg>